<svg width="240" height="78" fill="none" xmlns="http://www.w3.org/2000/svg"><path d="M2.575 73.65h.175c.163 0 .315-.07.455-.21.14-.14.257-.303.35-.49.117-.187.198-.385.245-.595.047-.233.07-.443.07-.63v-18.62c0-.163-.023-.35-.07-.56a1.889 1.889 0 00-.245-.595 1.168 1.168 0 00-.385-.49.672.672 0 00-.49-.21h-.175v-.35h5.74c2.17 0 3.862.478 5.075 1.435 1.237.957 1.855 2.228 1.855 3.815 0 .677-.117 1.283-.35 1.82a5.359 5.359 0 01-.91 1.435c-.35.42-.735.782-1.155 1.085-.42.28-.817.513-1.19.7.98.187 1.797.502 2.45.945a5.834 5.834 0 011.575 1.54c.42.56.712 1.167.875 1.82a7.92 7.92 0 01.245 1.925c0 1.213-.222 2.24-.665 3.08a5.979 5.979 0 01-1.785 2.03c-.723.513-1.563.887-2.52 1.12A11.95 11.95 0 018.84 74H2.575v-.35zm11.76-6.02c-.187-1.797-.793-3.185-1.82-4.165-1.027-.98-2.473-1.47-4.34-1.47h-1.96v10.85h2.03c1.89 0 3.372-.42 4.445-1.26 1.097-.863 1.645-2.053 1.645-3.57v-.385zM12.9 56.465c-.07-1.353-.548-2.427-1.435-3.22-.863-.793-2.03-1.19-3.5-1.19h-1.75v8.82h1.82c.98 0 1.773-.128 2.38-.385.63-.257 1.132-.583 1.505-.98.373-.42.63-.875.77-1.365s.21-.968.21-1.435v-.245zm8.899 17.185h.175a.74.74 0 00.49-.175c.14-.14.257-.303.35-.49.117-.187.198-.385.245-.595.07-.21.105-.408.105-.595V53.07a1.8 1.8 0 00-.105-.56 1.887 1.887 0 00-.245-.595 1.392 1.392 0 00-.35-.455.672.672 0 00-.49-.21h-.175v-.35h13.475v3.255h-.35a2.277 2.277 0 00-.63-1.4c-.373-.42-.957-.63-1.75-.63h-7.035v8.855h5.81c.537 0 .98-.163 1.33-.49.373-.327.56-.712.56-1.155h.35v4.375h-.35c0-.42-.175-.782-.525-1.085-.35-.303-.805-.455-1.365-.455h-5.81v10.605h7.665c.443 0 .828-.105 1.155-.315a3.06 3.06 0 00.805-.735c.233-.303.397-.618.49-.945.117-.35.175-.642.175-.875h.35V74h-14.35v-.35zm30.245-21.84c-1.726 0-3.231.315-4.515.945-1.26.607-2.31 1.412-3.15 2.415a10 10 0 00-1.89 3.325 11.983 11.983 0 00-.595 3.675c0 1.377.269 2.73.805 4.06a11.856 11.856 0 002.205 3.5 11.925 11.925 0 003.325 2.45c1.26.607 2.625.91 4.095.91.42 0 .91-.047 1.47-.14a6.605 6.605 0 001.715-.525 5.553 5.553 0 001.54-1.155c.49-.49.864-1.132 1.12-1.925h.35v3.885c-.35 0-.723.047-1.12.14l-1.26.315c-.606.163-1.283.315-2.03.455-.723.14-1.493.21-2.31.21-2.03 0-3.815-.35-5.355-1.05-1.54-.7-2.823-1.61-3.85-2.73a11.312 11.312 0 01-2.31-3.78 12.61 12.61 0 01-.77-4.305c0-1.447.257-2.882.77-4.305a10.967 10.967 0 012.345-3.815c1.05-1.143 2.369-2.065 3.955-2.765 1.587-.7 3.454-1.05 5.6-1.05.77 0 1.459.07 2.065.21.63.14 1.19.28 1.68.42.35.117.665.21.945.28.304.047.595.07.875.07v3.885h-.35c-.14-.723-.396-1.318-.77-1.785a3.8 3.8 0 00-1.33-1.12 5.22 5.22 0 00-1.61-.525 8.05 8.05 0 00-1.645-.175zm25.552 21.84h.175a.697.697 0 00.455-.175c.14-.14.257-.303.35-.49.117-.21.198-.42.245-.63.047-.233.07-.443.07-.63v-9.52h-11.2v9.52c0 .187.023.397.07.63a2.61 2.61 0 00.525 1.085c.14.14.303.21.49.21h.175V74h-4.9v-.35h.175a.697.697 0 00.455-.175c.14-.14.257-.303.35-.49.116-.21.198-.42.245-.63.047-.233.07-.443.07-.63V53.07c0-.163-.023-.35-.07-.56a2.577 2.577 0 00-.21-.595 1.393 1.393 0 00-.35-.455.672.672 0 00-.49-.21h-.175v-.35h4.9v.35h-.175c-.187 0-.35.07-.49.21-.14.117-.257.268-.35.455-.07.187-.129.385-.175.595-.047.21-.07.397-.07.56v7.91h11.2v-7.91c0-.163-.023-.35-.07-.56a2.577 2.577 0 00-.21-.595 1.393 1.393 0 00-.35-.455.672.672 0 00-.49-.21h-.175v-.35h4.9v.35h-.175c-.187 0-.35.07-.49.21-.14.117-.257.268-.35.455-.07.187-.128.385-.175.595-.047.21-.07.397-.07.56v18.655c0 .187.023.397.07.63.07.21.151.408.245.595.093.187.198.35.315.49.14.14.291.21.455.21h.175V74h-4.9v-.35zm23.277 0h.175c.56 0 .84-.257.84-.77 0-.187-.035-.385-.105-.595l-3.15-8.505h-6.125l-3.045 8.365a1.5 1.5 0 00-.105.525c0 .303.082.548.245.735.164.163.339.245.525.245h.175V74h-3.885v-.35h.175c.304 0 .595-.175.875-.525a4.67 4.67 0 00.735-1.295l8.015-21.35 7.84 21.14c.164.467.385.922.665 1.365.304.443.689.665 1.155.665h.175V74h-5.18v-.35zm-8.015-11.06h5.39l-2.695-7.315-2.695 7.315zm28.582 11.06h.175c.163 0 .315-.07.455-.21.14-.14.256-.303.35-.49.116-.187.198-.385.245-.595.046-.233.07-.443.07-.63v-18.62c0-.163-.024-.35-.07-.56a1.913 1.913 0 00-.245-.595 1.176 1.176 0 00-.385-.49.673.673 0 00-.49-.21h-.175v-.35h5.74c2.17 0 3.861.478 5.075 1.435 1.236.957 1.855 2.228 1.855 3.815 0 .677-.117 1.283-.35 1.82a5.383 5.383 0 01-.91 1.435c-.35.42-.735.782-1.155 1.085-.42.28-.817.513-1.19.7.98.187 1.796.502 2.45.945a5.843 5.843 0 011.575 1.54c.42.56.711 1.167.875 1.82.163.653.245 1.295.245 1.925 0 1.213-.222 2.24-.665 3.08a5.994 5.994 0 01-1.785 2.03c-.724.513-1.564.887-2.52 1.12a11.94 11.94 0 01-2.905.35h-6.265v-.35zm11.76-6.02c-.187-1.797-.794-3.185-1.82-4.165-1.027-.98-2.474-1.47-4.34-1.47h-1.96v10.85h2.03c1.89 0 3.371-.42 4.445-1.26 1.096-.863 1.645-2.053 1.645-3.57v-.385zm-1.435-11.165c-.07-1.353-.549-2.427-1.435-3.22-.864-.793-2.03-1.19-3.5-1.19h-1.75v8.82h1.82c.98 0 1.773-.128 2.38-.385.63-.257 1.131-.583 1.505-.98.373-.42.63-.875.77-1.365s.21-.968.21-1.435v-.245zm19.988-4.655c-1.726 0-3.231.315-4.515.945-1.26.607-2.31 1.412-3.15 2.415a10 10 0 00-1.89 3.325 12.001 12.001 0 00-.595 3.675c0 1.377.269 2.73.805 4.06a11.868 11.868 0 002.205 3.5 11.93 11.93 0 003.325 2.45c1.26.607 2.625.91 4.095.91.42 0 .91-.047 1.47-.14a6.598 6.598 0 001.715-.525 5.544 5.544 0 001.54-1.155c.49-.49.864-1.132 1.12-1.925h.35v3.885c-.35 0-.723.047-1.12.14l-1.26.315c-.606.163-1.283.315-2.03.455-.723.14-1.493.21-2.31.21-2.03 0-3.815-.35-5.355-1.05-1.54-.7-2.823-1.61-3.85-2.73a11.332 11.332 0 01-2.31-3.78 12.616 12.616 0 01-.77-4.305c0-1.447.257-2.882.77-4.305a10.976 10.976 0 012.345-3.815c1.05-1.143 2.369-2.065 3.955-2.765 1.587-.7 3.454-1.05 5.6-1.05.77 0 1.459.07 2.065.21.63.14 1.19.28 1.68.42.35.117.665.21.945.28.304.047.595.07.875.07v3.885h-.35c-.14-.723-.396-1.318-.77-1.785a3.792 3.792 0 00-1.33-1.12 5.214 5.214 0 00-1.61-.525 8.048 8.048 0 00-1.645-.175zm11.587 21.84h.175a.74.74 0 00.49-.175c.14-.14.257-.303.35-.49.117-.187.198-.385.245-.595.07-.21.105-.408.105-.595V53.07a1.8 1.8 0 00-.105-.56 1.889 1.889 0 00-.245-.595 1.388 1.388 0 00-.35-.455.671.671 0 00-.49-.21h-.175v-.35h13.475v3.255h-.35a2.281 2.281 0 00-.63-1.4c-.373-.42-.957-.63-1.75-.63h-7.035v8.855h5.81c.537 0 .98-.163 1.33-.49.373-.327.56-.712.56-1.155h.35v4.375h-.35c0-.42-.175-.782-.525-1.085-.35-.303-.805-.455-1.365-.455h-5.81v10.605h7.665c.443 0 .828-.105 1.155-.315.327-.21.595-.455.805-.735a2.82 2.82 0 00.49-.945c.117-.35.175-.642.175-.875h.35V74h-14.35v-.35zm23.952 0h.175V74h-5.04v-.35h.175a.74.74 0 00.49-.175c.14-.14.257-.303.35-.49.117-.187.198-.385.245-.595.047-.21.07-.408.07-.595V53.07c0-.163-.023-.35-.07-.56a1.889 1.889 0 00-.245-.595 1.388 1.388 0 00-.35-.455.671.671 0 00-.49-.21h-.175v-.35h13.475v3.71h-.35c0-.84-.187-1.458-.56-1.855-.35-.42-.91-.63-1.68-.63h-7.175v19.67c0 .187.023.385.07.595.047.21.117.408.21.595.117.187.245.35.385.49a.74.74 0 00.49.175zm28.296-.875v4.375h-.35a3.736 3.736 0 00-.245-1.015 3.914 3.914 0 00-.595-1.05 3.296 3.296 0 00-.84-.77 1.963 1.963 0 00-1.085-.315h-16.135c-.396 0-.758.105-1.085.315a4.815 4.815 0 00-.875.805 5.865 5.865 0 00-.595 1.05c-.14.373-.221.7-.245.98h-.35v-4.375h1.54c.747 0 1.272-.432 1.575-1.295l8.05-21.105 8.12 21c.164.35.385.677.665.98.28.28.607.42.98.42h1.47zm-18.515 0h13.475l-6.755-17.395-6.72 17.395zm36.83.875h.175c.56 0 .84-.257.84-.77 0-.187-.035-.385-.105-.595l-3.15-8.505h-6.125l-3.045 8.365a1.5 1.5 0 00-.105.525c0 .303.082.548.245.735.164.163.339.245.525.245h.175V74h-3.885v-.35h.175c.304 0 .595-.175.875-.525a4.64 4.64 0 00.735-1.295l8.015-21.35 7.84 21.14c.164.467.385.922.665 1.365.304.443.689.665 1.155.665h.175V74h-5.18v-.35zm-8.015-11.06h5.39l-2.695-7.315-2.695 7.315z" fill="#fff"/><path d="M128.31 16.071c0 4.283-2.081 8.195-4.205 11.067a31.31 31.31 0 01-2.911 3.39 25.984 25.984 0 01-.99.949 31.31 31.31 0 01-3.901-4.338c-2.125-2.873-4.205-6.785-4.205-11.068 0-4.282 2.08-8.194 4.205-11.066a31.313 31.313 0 012.911-3.39 25.986 25.986 0 01.99-.949l.033.03c.23.21.56.52.957.92.794.8 1.853 1.958 2.911 3.389 2.124 2.872 4.205 6.784 4.205 11.066z" stroke="#fff"/><path d="M116.111 14.383c2.697 3.077 3.731 7.534 4.077 11.29.172 1.87.172 3.544.128 4.75a32.459 32.459 0 01-.081 1.421l-.008.095-.083.01c-.292.03-.717.067-1.245.092-1.057.05-2.524.05-4.162-.146-3.292-.395-7.197-1.576-9.893-4.654-2.697-3.078-3.732-7.534-4.078-11.291a37.611 37.611 0 01-.128-4.75c.022-.603.054-1.087.081-1.42l.008-.095.083-.01c.292-.03.717-.067 1.245-.092 1.057-.05 2.524-.05 4.162.146 3.292.395 7.197 1.576 9.894 4.654zm8.575 0c-2.697 3.077-3.731 7.534-4.077 11.29a37.613 37.613 0 00-.128 4.75c.022.604.054 1.088.081 1.421l.008.095.083.01c.292.03.717.067 1.245.092 1.057.05 2.524.05 4.162-.146 3.292-.395 7.197-1.576 9.893-4.654 2.697-3.078 3.732-7.534 4.078-11.291.172-1.87.172-3.543.128-4.75a32.471 32.471 0 00-.081-1.42l-.008-.095-.083-.01c-.292-.03-.717-.067-1.245-.092a25.376 25.376 0 00-4.162.146c-3.292.395-7.197 1.576-9.894 4.654zm-43.757 6.046H.572m239.285 0h-82.143" stroke="#fff"/></svg>