<svg width="200" height="66" fill="none" xmlns="http://www.w3.org/2000/svg"><path d="M2.534 62.139h.145a.526.526 0 00.377-.175 1.55 1.55 0 00.29-.405c.096-.155.164-.32.203-.493a2.69 2.69 0 00.058-.523V45.115c0-.135-.02-.29-.058-.464a1.564 1.564 0 00-.203-.493.968.968 0 00-.32-.406.556.556 0 00-.405-.174h-.145v-.29h4.756c1.798 0 3.2.397 4.205 1.19 1.024.792 1.537 1.846 1.537 3.16 0 .561-.097 1.064-.29 1.509a4.442 4.442 0 01-.754 1.189 5.25 5.25 0 01-.957.898 9.27 9.27 0 01-.986.58c.812.155 1.488.416 2.03.783.54.368.976.793 1.305 1.276.348.465.59.967.725 1.509.135.54.202 1.073.202 1.595 0 1.005-.183 1.856-.55 2.552a4.955 4.955 0 01-1.48 1.681 6.02 6.02 0 01-2.087.928 9.889 9.889 0 01-2.407.29H2.534v-.29zm9.744-4.989c-.155-1.488-.658-2.639-1.508-3.45-.851-.813-2.05-1.219-3.596-1.219H5.55v8.99h1.682c1.566 0 2.793-.347 3.683-1.043.908-.716 1.363-1.702 1.363-2.959v-.319zm-1.19-9.25c-.057-1.122-.454-2.011-1.188-2.669-.716-.657-1.682-.986-2.9-.986H5.55v7.309h1.508c.812 0 1.469-.107 1.972-.32.522-.212.937-.483 1.247-.812a2.89 2.89 0 00.638-1.13c.116-.407.174-.803.174-1.19V47.9zm7.374 14.239h.145c.155 0 .29-.049.406-.146a1.52 1.52 0 00.29-.406c.097-.154.164-.319.203-.493.058-.174.087-.338.087-.492V45.087c0-.136-.029-.29-.087-.465a1.564 1.564 0 00-.203-.492 1.152 1.152 0 00-.29-.378.556.556 0 00-.406-.174h-.145v-.29h11.165v2.698h-.29a1.887 1.887 0 00-.522-1.16c-.31-.349-.793-.523-1.45-.523h-5.829v7.338h4.814c.445 0 .812-.136 1.102-.407.31-.27.464-.59.464-.956h.29v3.625h-.29c0-.349-.145-.648-.435-.9-.29-.25-.667-.377-1.131-.377h-4.814v8.788h6.351c.367 0 .686-.087.957-.261a2.55 2.55 0 00.667-.61c.193-.25.329-.512.406-.782.097-.29.145-.532.145-.726h.29v3.394h-11.89v-.29zm25.06-18.097c-1.43 0-2.677.261-3.74.783-1.045.503-1.915 1.17-2.61 2.002a8.288 8.288 0 00-1.567 2.755 9.925 9.925 0 00-.493 3.044c0 1.141.223 2.263.667 3.364a9.825 9.825 0 001.827 2.9 9.88 9.88 0 002.755 2.03 7.72 7.72 0 003.393.755c.348 0 .754-.04 1.218-.116a5.48 5.48 0 001.421-.435c.464-.233.89-.552 1.276-.958.406-.405.716-.937.928-1.594h.29v3.218c-.29 0-.599.04-.928.117l-1.044.26c-.502.136-1.063.261-1.682.377a9.977 9.977 0 01-1.914.175c-1.682 0-3.16-.29-4.437-.87-1.276-.58-2.339-1.334-3.19-2.262a9.37 9.37 0 01-1.914-3.133 10.449 10.449 0 01-.638-3.566c0-1.2.213-2.388.638-3.567a9.085 9.085 0 011.943-3.161c.87-.948 1.963-1.711 3.277-2.291 1.315-.58 2.862-.87 4.64-.87a7.64 7.64 0 011.711.173c.522.117.986.233 1.392.349.29.096.551.173.783.231.252.04.493.058.725.058v3.22h-.29c-.116-.6-.328-1.093-.638-1.48a3.148 3.148 0 00-1.102-.927 4.325 4.325 0 00-1.334-.435 6.67 6.67 0 00-1.363-.146zm21.172 18.096h.145a.578.578 0 00.377-.145 1.55 1.55 0 00.29-.406c.096-.174.164-.348.203-.522.038-.193.058-.367.058-.521v-7.888h-9.28v7.888c0 .154.019.328.058.522a2.126 2.126 0 00.435.898.556.556 0 00.406.175h.145v.29h-4.06v-.29h.145a.578.578 0 00.377-.146 1.55 1.55 0 00.29-.406c.096-.174.164-.348.203-.522.038-.193.058-.367.058-.521V45.087c0-.136-.02-.29-.058-.465a2.134 2.134 0 00-.174-.492 1.153 1.153 0 00-.29-.378.557.557 0 00-.406-.174h-.145v-.29h4.06v.29h-.145a.556.556 0 00-.406.174 1.152 1.152 0 00-.29.377 3.658 3.658 0 00-.145.494 2.164 2.164 0 00-.058.464v6.553h9.28v-6.553c0-.136-.02-.29-.058-.465a2.134 2.134 0 00-.174-.492 1.153 1.153 0 00-.29-.378.557.557 0 00-.406-.174h-.145v-.29h4.06v.29h-.145a.556.556 0 00-.406.174 1.152 1.152 0 00-.29.377 3.658 3.658 0 00-.145.494 2.164 2.164 0 00-.058.464v15.456c0 .155.019.33.058.523.058.173.125.338.203.492.077.155.164.29.26.407a.526.526 0 00.378.173h.145v.29h-4.06v-.29zm19.287 0h.145c.464 0 .696-.212.696-.637 0-.155-.03-.32-.087-.493l-2.61-7.047H77.05l-2.523 6.93c-.058.155-.087.3-.087.436 0 .25.067.454.203.608.135.136.28.203.435.203h.145v.29h-3.22v-.29h.146c.251 0 .493-.145.725-.434.251-.31.454-.668.609-1.074l6.64-17.69 6.497 17.517c.135.386.319.763.55 1.13.252.368.571.551.958.551h.145v.29H83.98v-.29zm-6.641-9.163h4.466l-2.233-6.062-2.233 6.062zm23.681 9.163h.145a.525.525 0 00.377-.173c.116-.117.213-.252.29-.407a1.54 1.54 0 00.203-.492c.039-.194.058-.368.058-.523V45.115c0-.135-.019-.29-.058-.464a1.541 1.541 0 00-.203-.493.96.96 0 00-.319-.406.556.556 0 00-.406-.174h-.145v-.29h4.756c1.798 0 3.2.397 4.205 1.19 1.025.792 1.537 1.846 1.537 3.16 0 .561-.096 1.064-.29 1.509a4.417 4.417 0 01-.754 1.189c-.29.348-.609.647-.957.898a9.199 9.199 0 01-.986.58c.812.155 1.489.416 2.03.783.542.368.977.793 1.305 1.276.348.465.59.967.725 1.509a6.52 6.52 0 01.203 1.595c0 1.005-.183 1.856-.551 2.552a4.948 4.948 0 01-1.479 1.681 6.037 6.037 0 01-2.088.928 9.883 9.883 0 01-2.407.29h-5.191v-.29zm9.744-4.987c-.154-1.49-.657-2.64-1.508-3.452-.85-.811-2.049-1.218-3.596-1.218h-1.624v8.99h1.682c1.566 0 2.794-.347 3.683-1.043.909-.716 1.363-1.702 1.363-2.959v-.319zm-1.189-9.252c-.058-1.12-.454-2.01-1.189-2.668-.715-.657-1.682-.986-2.9-.986h-1.45v7.309h1.508c.812 0 1.47-.107 1.972-.32.522-.212.938-.483 1.247-.812.31-.347.522-.724.638-1.13.116-.407.174-.803.174-1.19V47.9zm16.562-3.857c-1.43 0-2.677.261-3.741.783-1.044.503-1.914 1.17-2.61 2.002a8.288 8.288 0 00-1.566 2.755 9.947 9.947 0 00-.493 3.044c0 1.141.223 2.263.667 3.364a9.837 9.837 0 001.827 2.9 9.885 9.885 0 002.755 2.03 7.72 7.72 0 003.393.755c.348 0 .754-.04 1.218-.116a5.472 5.472 0 001.421-.435c.464-.233.89-.552 1.276-.958.406-.405.716-.937.928-1.594h.29v3.218c-.29 0-.599.04-.928.117l-1.044.26c-.502.136-1.063.261-1.682.377a10.06 10.06 0 01-1.914.175c-1.682 0-3.161-.29-4.437-.87-1.276-.58-2.339-1.334-3.19-2.262a9.393 9.393 0 01-1.914-3.133 10.456 10.456 0 01-.638-3.566c0-1.2.213-2.388.638-3.567a9.095 9.095 0 011.943-3.161c.87-.948 1.963-1.711 3.277-2.291 1.315-.58 2.862-.87 4.64-.87.638 0 1.209.057 1.711.173.522.117.986.233 1.392.349.29.096.551.173.783.231.252.04.493.058.725.058v3.22h-.29c-.116-.6-.328-1.093-.638-1.48a3.14 3.14 0 00-1.102-.927 4.32 4.32 0 00-1.334-.435 6.668 6.668 0 00-1.363-.146zm9.601 18.096h.145c.154 0 .29-.048.406-.145.116-.116.212-.25.29-.406.096-.154.164-.319.203-.493.058-.174.087-.338.087-.492V45.087c0-.136-.029-.29-.087-.465a1.588 1.588 0 00-.203-.492 1.161 1.161 0 00-.29-.378.558.558 0 00-.406-.174h-.145v-.29h11.165v2.698h-.29a1.89 1.89 0 00-.522-1.16c-.31-.349-.793-.523-1.45-.523h-5.829v7.338h4.814c.444 0 .812-.136 1.102-.407.309-.27.464-.59.464-.956h.29v3.625h-.29c0-.349-.145-.648-.435-.9-.29-.25-.667-.377-1.131-.377h-4.814v8.788h6.351c.367 0 .686-.087.957-.261a2.55 2.55 0 00.667-.61c.193-.25.328-.512.406-.782.096-.29.145-.532.145-.726h.29v3.394h-11.89v-.29zm19.846 0h.145v.29h-4.176v-.29h.145c.155 0 .29-.048.406-.145a1.52 1.52 0 00.29-.406c.097-.154.164-.319.203-.493.039-.174.058-.338.058-.492V45.087c0-.136-.019-.29-.058-.465a1.564 1.564 0 00-.203-.492 1.148 1.148 0 00-.29-.378.556.556 0 00-.406-.174h-.145v-.29h11.165v3.075h-.29c0-.697-.155-1.209-.464-1.538-.29-.348-.754-.522-1.392-.522h-5.945v16.299a2.256 2.256 0 00.232.986c.097.154.203.29.319.405a.615.615 0 00.406.145zm23.445-.724v3.624h-.29a3.092 3.092 0 00-.203-.84 3.22 3.22 0 00-.493-.87 2.728 2.728 0 00-.696-.639 1.626 1.626 0 00-.899-.26H163.08a1.63 1.63 0 00-.899.26c-.27.194-.512.416-.725.667a4.891 4.891 0 00-.493.87 3.13 3.13 0 00-.203.813h-.29v-3.626h1.276c.619 0 1.054-.357 1.305-1.072l6.67-17.488 6.728 17.4c.136.29.319.561.551.813.232.231.503.347.812.347h1.218zm-15.341 0h11.165L169.257 47l-5.568 14.413zm30.517.724h.145c.464 0 .696-.212.696-.637 0-.155-.029-.32-.087-.493l-2.61-7.047h-5.075l-2.523 6.93c-.058.155-.087.3-.087.436 0 .25.067.454.203.608.135.136.28.203.435.203h.145v.29h-3.219v-.29h.145c.251 0 .493-.145.725-.434a3.89 3.89 0 00.609-1.074l6.641-17.69 6.496 17.517c.135.386.319.763.551 1.13.251.368.57.551.957.551h.145v.29h-4.292v-.29zm-6.641-9.163h4.466l-2.233-6.062-2.233 6.062z" fill="#fff"/><path d="M106.628 14.287c0 3.522-1.711 6.746-3.467 9.12a25.98 25.98 0 01-2.404 2.798c-.311.313-.572.56-.76.731a21.663 21.663 0 01-.759-.73 25.867 25.867 0 01-2.404-2.8c-1.755-2.373-3.467-5.597-3.467-9.118 0-3.522 1.712-6.746 3.467-9.12a25.868 25.868 0 012.404-2.798c.31-.313.572-.56.76-.731.187.172.448.418.759.73.655.662 1.53 1.619 2.404 2.8 1.756 2.373 3.467 5.597 3.467 9.119z" stroke="#fff"/><path d="M96.55 12.953c2.215 2.528 3.07 6.195 3.355 9.3.142 1.544.142 2.926.106 3.923a27.008 27.008 0 01-.067 1.176h-.004a20.953 20.953 0 01-4.464-.044c-2.72-.326-5.934-1.302-8.15-3.83-2.214-2.528-3.069-6.195-3.355-9.3a31.108 31.108 0 01-.038-5.099h.003a20.956 20.956 0 014.464.044c2.721.326 5.934 1.301 8.15 3.83zm7.218 0c-2.215 2.528-3.07 6.195-3.356 9.3a31.109 31.109 0 00-.038 5.095v.004h.003a20.953 20.953 0 004.464-.044c2.721-.326 5.934-1.302 8.15-3.83 2.215-2.528 3.069-6.195 3.355-9.3.142-1.544.142-2.926.106-3.923a26.905 26.905 0 00-.067-1.172v-.004h-.004a20.959 20.959 0 00-4.464.044c-2.721.326-5.934 1.301-8.149 3.83zm-36.313 4.945H.874m198.265 0h-68.061" stroke="#fff"/></svg>